<svg width="855" height="834" viewBox="0 0 855 834" fill="none" xmlns="http://www.w3.org/2000/svg">
<mask id="path-1-outside-1_114_45" maskUnits="userSpaceOnUse" x="112" y="428" width="433" height="239" fill="black">
<rect fill="white" x="112" y="428" width="433" height="239"/>
<path d="M122.676 462.256V438.818H286.312V462.256H217.705V657H191.284V462.256H122.676ZM353.509 438.818V657H327.088V438.818H353.509ZM406.483 657V438.818H432.903V633.562H534.324V657H406.483Z"/>
</mask>
<path d="M122.676 462.256V438.818H286.312V462.256H217.705V657H191.284V462.256H122.676ZM353.509 438.818V657H327.088V438.818H353.509ZM406.483 657V438.818H432.903V633.562H534.324V657H406.483Z" fill="#429C82"/>
<path d="M122.676 462.256H112.676V472.256H122.676V462.256ZM122.676 438.818V428.818H112.676V438.818H122.676ZM286.312 438.818H296.312V428.818H286.312V438.818ZM286.312 462.256V472.256H296.312V462.256H286.312ZM217.705 462.256V452.256H207.705V462.256H217.705ZM217.705 657V667H227.705V657H217.705ZM191.284 657H181.284V667H191.284V657ZM191.284 462.256H201.284V452.256H191.284V462.256ZM132.676 462.256V438.818H112.676V462.256H132.676ZM122.676 448.818H286.312V428.818H122.676V448.818ZM276.312 438.818V462.256H296.312V438.818H276.312ZM286.312 452.256H217.705V472.256H286.312V452.256ZM207.705 462.256V657H227.705V462.256H207.705ZM217.705 647H191.284V667H217.705V647ZM201.284 657V462.256H181.284V657H201.284ZM191.284 452.256H122.676V472.256H191.284V452.256ZM353.509 438.818H363.509V428.818H353.509V438.818ZM353.509 657V667H363.509V657H353.509ZM327.088 657H317.088V667H327.088V657ZM327.088 438.818V428.818H317.088V438.818H327.088ZM343.509 438.818V657H363.509V438.818H343.509ZM353.509 647H327.088V667H353.509V647ZM337.088 657V438.818H317.088V657H337.088ZM327.088 448.818H353.509V428.818H327.088V448.818ZM406.483 657H396.483V667H406.483V657ZM406.483 438.818V428.818H396.483V438.818H406.483ZM432.903 438.818H442.903V428.818H432.903V438.818ZM432.903 633.562H422.903V643.562H432.903V633.562ZM534.324 633.562H544.324V623.562H534.324V633.562ZM534.324 657V667H544.324V657H534.324ZM416.483 657V438.818H396.483V657H416.483ZM406.483 448.818H432.903V428.818H406.483V448.818ZM422.903 438.818V633.562H442.903V438.818H422.903ZM432.903 643.562H534.324V623.562H432.903V643.562ZM524.324 633.562V657H544.324V633.562H524.324ZM534.324 647H406.483V667H534.324V647Z" fill="#429C82" mask="url(#path-1-outside-1_114_45)"/>
<path d="M391 89.8311H175.231C125.448 89.8311 100.539 89.831 81.5245 99.5195C64.7987 108.041 51.2102 121.63 42.6884 138.355C33 157.37 33 182.279 33 232.062V658.729C33 708.511 33 733.391 42.6884 752.405C51.2102 769.129 64.7987 782.743 81.5245 791.263C100.52 800.943 125.4 800.943 175.085 800.943H602.027C651.711 800.943 676.556 800.943 695.551 791.263C712.276 782.743 725.911 769.116 734.431 752.392C744.111 733.396 744.111 708.543 744.111 658.858V418.443" stroke="black" stroke-width="65" stroke-linecap="round" stroke-linejoin="round"/>
<path d="M683.166 33L498.057 218.109L483 366.5L639.557 343.276L821.833 161" stroke="#429C82" stroke-width="65" stroke-linecap="round" stroke-linejoin="round"/>
</svg>
