<svg width="309" height="266" viewBox="0 0 309 266" fill="none" xmlns="http://www.w3.org/2000/svg">
<path d="M295.618 266H13.3819C9.83402 265.994 6.43261 263.79 3.92389 259.872C1.41517 255.953 0.00400981 250.641 0 245.1V20.9C0.00400767 15.3589 1.41517 10.0465 3.92389 6.12838C6.43261 2.21023 9.83402 0.00625922 13.3819 0H295.618C299.166 0.00625588 302.567 2.21019 305.076 6.12834C307.585 10.0465 308.996 15.3589 309 20.9V245.1C308.996 250.641 307.585 255.953 305.076 259.872C302.567 263.79 299.166 265.994 295.618 266Z" fill="#E6E6E6"/>
<path d="M290.467 250.821H19.3726C17.5757 250.817 15.853 249.686 14.5825 247.674C13.3119 245.662 12.5972 242.935 12.5952 240.089V26.731C12.5972 23.886 13.3119 21.1583 14.5825 19.1466C15.853 17.1348 17.5757 16.0032 19.3726 16H290.467C292.264 16.0032 293.987 17.1348 295.257 19.1466C296.528 21.1583 297.243 23.886 297.245 26.731V240.089C297.243 242.935 296.528 245.662 295.257 247.674C293.987 249.686 292.264 250.817 290.467 250.821Z" fill="white"/>
<path d="M263.589 158H50.4113C48.711 158 47.0802 157.157 45.8778 155.657C44.6755 154.157 44 152.122 44 150C44 147.878 44.6755 145.843 45.8778 144.343C47.0802 142.843 48.711 142 50.4113 142H263.589C265.289 142 266.92 142.843 268.122 144.343C269.325 145.843 270 147.878 270 150C270 152.122 269.325 154.157 268.122 155.657C266.92 157.157 265.289 158 263.589 158Z" fill="#E6E6E6"/>
<path d="M263.589 225H50.4113C48.711 225 47.0802 224.157 45.8778 222.657C44.6755 221.157 44 219.122 44 217C44 214.878 44.6755 212.843 45.8778 211.343C47.0802 209.843 48.711 209 50.4113 209H263.589C265.289 209 266.92 209.843 268.122 211.343C269.325 212.843 270 214.878 270 217C270 219.122 269.325 221.157 268.122 222.657C266.92 224.157 265.289 225 263.589 225Z" fill="#E6E6E6"/>
<path d="M263.589 124H50.4113C48.711 124 47.0802 123.157 45.8778 121.657C44.6755 120.157 44 118.122 44 116C44 113.878 44.6755 111.843 45.8778 110.343C47.0802 108.843 48.711 108 50.4113 108H263.589C265.289 108 266.92 108.843 268.122 110.343C269.325 111.843 270 113.878 270 116C270 118.122 269.325 120.157 268.122 121.657C266.92 123.157 265.289 124 263.589 124Z" fill="#E6E6E6"/>
<path d="M263.589 191H50.4113C48.711 191 47.0802 190.157 45.8778 188.657C44.6755 187.157 44 185.122 44 183C44 180.878 44.6755 178.843 45.8778 177.343C47.0802 175.843 48.711 175 50.4113 175H263.589C265.289 175 266.92 175.843 268.122 177.343C269.325 178.843 270 180.878 270 183C270 185.122 269.325 187.157 268.122 188.657C266.92 190.157 265.289 191 263.589 191Z" fill="#E6E6E6"/>
<path d="M91.88 90H50.12C48.4974 89.9977 46.9418 89.1808 45.7945 87.7286C44.6472 86.2764 44.0018 84.3075 44 82.2538V43.7462C44.0018 41.6925 44.6472 39.7235 45.7945 38.2713C46.9418 36.8191 48.4974 36.0023 50.12 36H91.88C93.5026 36.0023 95.0582 36.8191 96.2055 38.2713C97.3528 39.7235 97.9982 41.6925 98 43.7462V82.2538C97.9982 84.3075 97.3528 86.2764 96.2055 87.7286C95.0582 89.1808 93.5026 89.9977 91.88 90Z" fill="#FCBE24"/>
<path d="M261.576 86H119.424C117.19 86 115.047 85.1571 113.467 83.6568C111.888 82.1565 111 80.1217 111 78C111 75.8783 111.888 73.8434 113.467 72.3431C115.047 70.8428 117.19 70 119.424 70H261.576C263.81 70 265.953 70.8428 267.533 72.3431C269.113 73.8434 270 75.8783 270 78C270 80.1217 269.113 82.1565 267.533 83.6568C265.953 85.1571 263.81 86 261.576 86Z" fill="#CCCCCC"/>
<path d="M202.579 52H119.421C117.188 52 115.046 51.1571 113.466 49.6568C111.887 48.1565 111 46.1217 111 44C111 41.8783 111.887 39.8434 113.466 38.3431C115.046 36.8428 117.188 36 119.421 36H202.579C204.812 36 206.954 36.8428 208.534 38.3431C210.113 39.8434 211 41.8783 211 44C211 46.1217 210.113 48.1565 208.534 49.6568C206.954 51.1571 204.812 52 202.579 52Z" fill="#CCCCCC"/>
</svg>
