<svg width="868" height="868" viewBox="0 0 868 868" fill="none" xmlns="http://www.w3.org/2000/svg">
<path opacity="0.1" fill-rule="evenodd" clip-rule="evenodd" d="M434 34C104.6 34 34 104.6 34 434C34 763.4 104.6 834 434 834C763.4 834 834 763.4 834 434C834 104.6 763.4 34 434 34ZM534.867 302.209C575.653 271.534 599.351 267.464 608.662 267.341C617.671 294.795 618.836 324.957 611.964 353.267C611.533 355.04 611.076 356.8 610.582 358.556C609.156 363.636 610.209 369.08 613.404 373.258L613.453 373.32C614.093 374.164 614.729 375.013 615.356 375.876C634.862 402.662 645.569 437.053 645.098 472.729L645.093 472.876C645.093 548.391 625.449 592.418 598.418 618.813C571.151 645.431 534.564 655.947 496.831 660.524L495.769 660.653L495.231 660.729C453.689 667.782 413.804 668.169 372.124 661.938L371.956 661.916L370.387 661.702C332.851 656.6 296.437 645.627 269.313 618.738C242.405 592.062 222.905 547.969 222.906 472.876L222.904 472.729C222.432 437.053 233.136 402.662 252.644 375.876C253.325 374.938 254.018 374.013 254.72 373.098C257.844 369.022 258.872 363.707 257.472 358.747L257.377 358.413C256.899 356.702 256.45 354.987 256.031 353.262C249.15 324.971 250.249 294.828 259.151 267.34C268.524 267.458 292.324 271.525 333.131 302.21C334.72 303.404 336.333 304.639 337.972 305.914C342.062 309.111 347.462 310.091 352.418 308.535L352.476 308.516C355.191 307.675 357.92 306.876 360.649 306.121C408.884 292.78 459.116 292.78 507.351 306.121C509.947 306.839 512.538 307.596 515.124 308.392L515.231 308.425C520.36 310.007 526.018 309.038 530.347 305.668C531.876 304.479 533.382 303.327 534.867 302.209Z" fill="#323232"/>
<path d="M510.312 295.412C460.138 281.535 407.863 281.535 357.689 295.412C356.832 295.649 355.974 295.891 355.12 296.137C349.854 297.652 344.188 296.622 339.809 293.329C287.028 253.641 259.457 255.414 252.635 256.738C251.538 256.951 250.705 257.769 250.326 258.819C250.23 259.085 250.135 259.35 250.04 259.616C239.173 290.224 237.513 324.139 245.235 355.889C245.684 357.738 246.165 359.578 246.678 361.409C246.712 361.529 246.746 361.649 246.78 361.769C247.224 363.342 246.898 365.035 245.903 366.338C245.144 367.324 244.398 368.324 243.663 369.333C222.658 398.173 211.292 434.947 211.794 472.875C211.794 626.884 291.954 662.258 368.889 672.715L370.48 672.924C413.32 679.329 454.387 678.933 497.089 671.684L498.169 671.555C575.476 662.173 656.205 627.72 656.205 472.875C656.707 434.947 645.343 398.173 624.338 369.333C623.663 368.409 622.978 367.489 622.285 366.578L622.232 366.511C621.156 365.102 620.8 363.267 621.28 361.56C621.809 359.675 622.303 357.787 622.76 355.889C630.489 324.049 628.734 290.034 617.685 259.411C617.614 259.223 617.547 259.036 617.48 258.848C617.089 257.779 616.24 256.946 615.12 256.73C608.267 255.406 580.849 253.725 528.192 293.329C523.814 296.62 518.147 297.643 512.88 296.135C512.027 295.89 511.169 295.649 510.312 295.412Z" stroke="#323232" stroke-width="66.6667" stroke-linecap="round" stroke-linejoin="round"/>
<path d="M34 434C34 104.6 104.6 34 434 34C763.4 34 834 104.6 834 434C834 763.4 763.4 834 434 834C104.6 834 34 763.4 34 434Z" stroke="#323232" stroke-width="66.6667"/>
</svg>
