<svg width="800" height="800" viewBox="0 0 800 800" fill="none" xmlns="http://www.w3.org/2000/svg">
<path d="M327.273 581.818H290.909V309.091L480.662 593.72C497.709 619.291 528.997 631.389 558.815 623.934L568.047 621.625C576.142 619.6 581.818 612.327 581.818 603.985V218.182C581.818 218.182 618.182 218.182 618.182 181.818H509.091C472.727 181.818 472.727 218.182 472.727 218.182H509.091V436.364L332.713 189.432C329.298 184.654 323.791 181.818 317.919 181.818H218.182C181.818 181.818 181.818 218.182 181.818 218.182H218.182V581.818C218.182 581.818 181.818 581.818 181.818 618.182H290.909C327.273 618.182 327.273 581.818 327.273 581.818Z" fill="#0F0F0F"/>
<path fill-rule="evenodd" clip-rule="evenodd" d="M0 109.091C0 48.8418 48.8418 0 109.091 0H690.909C751.16 0 800 48.8418 800 109.091V690.909C800 751.16 751.16 800 690.909 800H109.091C48.8418 800 0 751.16 0 690.909V109.091ZM109.091 72.7273H690.909C710.993 72.7273 727.273 89.008 727.273 109.091V690.909C727.273 710.993 710.993 727.273 690.909 727.273H109.091C89.008 727.273 72.7273 710.993 72.7273 690.909V109.091C72.7273 89.008 89.008 72.7273 109.091 72.7273Z" fill="#0F0F0F"/>
</svg>
